<?xml version="1.0" encoding="UTF-8" standalone="no"?>
<svg
   version="1.1"
   id="Layer_1"
   x="0px"
   y="0px"
   width="100%"
   viewBox="0 0 1240 1240"
   enable-background="new 0 0 1240 1240"
   xml:space="preserve"
   sodipodi:docname="M.svg"
   inkscape:export-filename="M.png"
   inkscape:export-xdpi="83.6129"
   inkscape:export-ydpi="83.6129"
   inkscape:version="1.3 (0e150ed6c4, 2023-07-21)"
   xmlns:inkscape="http://www.inkscape.org/namespaces/inkscape"
   xmlns:sodipodi="http://sodipodi.sourceforge.net/DTD/sodipodi-0.dtd"
   xmlns="http://www.w3.org/2000/svg"
   xmlns:svg="http://www.w3.org/2000/svg"><defs
   id="defs4" /><sodipodi:namedview
   id="namedview4"
   pagecolor="#ffffff"
   bordercolor="#666666"
   borderopacity="1.0"
   inkscape:showpageshadow="2"
   inkscape:pageopacity="0.0"
   inkscape:pagecheckerboard="0"
   inkscape:deskcolor="#d1d1d1"
   showgrid="false"
   inkscape:zoom="0.65564516"
   inkscape:cx="619.23739"
   inkscape:cy="620"
   inkscape:window-width="1920"
   inkscape:window-height="1009"
   inkscape:window-x="-8"
   inkscape:window-y="-8"
   inkscape:window-maximized="1"
   inkscape:current-layer="Layer_1" />&#10;<path
   fill="#FFFFFF"
   opacity="1.000000"
   stroke="none"
   d=" M1241.000000,443.000000   C1241.000000,709.333313 1241.000000,975.166687 1241.000000,1241.000000   C827.666687,1241.000000 414.333344,1241.000000 1.000000,1241.000000   C1.000000,827.666687 1.000000,414.333344 1.000000,1.000000   C414.333344,1.000000 827.666687,1.000000 1241.000000,1.000000   C1241.000000,148.166672 1241.000000,295.333344 1241.000000,443.000000  M605.876770,1237.081421   C644.267212,1237.811157 682.427551,1235.397949 720.335571,1229.077881   C780.986023,1218.966187 838.858276,1200.310181 893.881836,1172.886719   C975.327026,1132.295044 1044.531250,1076.528931 1101.218140,1005.290710   C1138.991333,957.821411 1169.125977,905.923096 1191.589966,849.568359   C1216.825195,786.261536 1231.370239,720.528809 1234.656860,652.520264   C1236.717773,609.875366 1234.868042,567.287415 1228.080444,524.987915   C1220.324097,476.651398 1207.559326,429.709839 1188.673462,384.585754   C1151.428223,295.595917 1096.930908,218.882080 1023.950012,155.495972   C978.769470,116.255310 929.023682,84.186577 874.576050,59.341125   C832.023315,39.923489 787.983276,24.792999 741.994141,16.481417   C712.572510,11.164080 682.675720,8.228193 652.886047,5.302933   C638.712097,3.911086 624.291077,5.035836 609.051086,4.925464   C568.020142,3.815494 527.148804,4.963216 486.547363,11.930079   C431.863708,21.313320 379.964081,38.944263 330.837799,64.483574   C259.095581,101.780220 198.089508,152.356873 147.279251,215.230286   C104.798447,267.796722 72.182304,326.005890 48.378838,389.178589   C24.144377,453.495087 10.651771,520.146912 7.374594,588.695740   C5.312778,631.822876 7.196809,674.898560 13.795300,717.716492   C19.914742,757.425781 29.050745,796.345398 42.011833,834.369141   C64.626701,900.714050 97.210571,961.715393 140.092987,1017.184387   C168.549973,1053.993774 200.780945,1087.169067 237.184814,1116.121338   C289.044708,1157.365967 346.254089,1188.965942 409.191620,1210.055176   C472.771545,1231.359863 538.120300,1239.477295 605.876770,1237.081421  z"
   id="path1"
   style="fill:#000000;fill-opacity:0;opacity:0;stroke-width:1.0015748;stroke-dasharray:none" />&#10;<path
   fill="#191717"
   opacity="1.000000"
   stroke="none"
   d=" M604.957214,1236.858032   C538.120300,1239.477295 472.771545,1231.359863 409.191620,1210.055176   C346.254089,1188.965942 289.044708,1157.365967 237.184814,1116.121338   C200.780945,1087.169067 168.549973,1053.993774 140.092987,1017.184387   C97.210571,961.715393 64.626701,900.714050 42.011833,834.369141   C29.050745,796.345398 19.914742,757.425781 13.795300,717.716492   C7.196809,674.898560 5.312778,631.822876 7.374594,588.695740   C10.651771,520.146912 24.144377,453.495087 48.378838,389.178589   C72.182304,326.005890 104.798447,267.796722 147.279251,215.230286   C198.089508,152.356873 259.095581,101.780220 330.837799,64.483574   C379.964081,38.944263 431.863708,21.313320 486.547363,11.930079   C527.148804,4.963216 568.020142,3.815494 609.833130,5.235631   C624.140930,7.005620 637.690796,8.273549 651.187744,9.963551   C683.436035,14.001459 714.875488,21.708506 745.595642,32.153034   C776.203491,42.559372 805.615479,55.758785 833.985229,71.339241   C878.463623,95.766449 918.952087,125.627846 955.175354,161.050095   C971.568176,177.080444 987.083923,194.122894 1001.865601,211.660339   C1028.435913,243.184311 1050.762329,277.680298 1070.015381,314.139221   C1089.884888,351.765472 1106.455444,390.807037 1117.884521,431.803864   C1124.518433,455.600494 1130.288208,479.718292 1134.826660,503.994537   C1138.782593,525.154907 1140.989746,546.691162 1142.992920,568.152527   C1144.674805,586.171448 1145.637573,604.321472 1145.647461,622.414124   C1145.656982,639.671936 1144.552612,656.979065 1142.975464,674.176270   C1141.112427,694.490295 1138.990967,714.840393 1135.597046,734.941040   C1129.728149,769.698730 1120.789795,803.731934 1109.205566,837.083618   C1095.896118,875.402039 1079.285278,912.155823 1058.965942,947.257812   C1024.908447,1006.093018 982.646240,1058.131226 931.097778,1102.587402   C898.436157,1130.755249 863.039856,1154.846924 824.952209,1175.019531   C789.827515,1193.622803 753.053101,1208.132935 714.721191,1218.564697   C683.748291,1226.993774 652.327393,1233.111206 620.199951,1235.115845   C615.102661,1235.434082 610.037354,1236.264526 604.957214,1236.858032  M620.979431,685.555786   C629.807251,675.383240 638.652588,665.225769 647.456848,655.032898   C653.574585,647.950378 659.656494,640.836609 665.717773,633.705750   C676.761108,620.713745 687.691162,607.623840 698.873169,594.752686   C701.280090,591.982178 703.636902,590.077698 699.518494,586.855347   C697.503967,585.279114 696.037109,582.962708 694.454773,580.880737   C683.031067,565.849976 671.718262,550.734253 660.221436,535.759766   C645.324036,516.356140 630.160522,497.155884 615.351501,477.685577   C602.756348,461.125916 590.592957,444.238495 578.073730,427.620270   C560.244263,403.953156 542.256714,380.405060 524.361572,356.787262   C522.895935,354.852875 521.426819,352.874817 520.315125,350.732422   C519.330261,348.834320 518.841309,346.678894 518.133423,344.637085   C520.124451,344.091827 522.114807,343.072784 524.106567,343.070099   C586.598328,342.986023 649.090454,342.918304 711.581848,343.089935   C720.927551,343.115601 730.361511,343.731873 739.594299,345.132050   C757.011475,347.773499 772.293762,355.388519 785.020874,367.609344   C796.227966,378.370544 804.336121,391.475433 809.728394,405.859955   C814.123169,417.583557 816.744812,429.979065 820.011719,442.114563   C821.235779,446.661346 825.813171,451.652924 830.420288,451.896027   C837.171204,452.252228 843.954956,451.987732 851.001770,451.987732   C851.001770,450.142883 851.017639,448.837402 850.999512,447.532379   C850.680725,424.600403 850.344177,401.668610 850.039246,378.736420   C849.679077,351.643158 849.344055,324.549561 849.003052,297.456024   C848.980957,295.698547 849.000183,293.940521 849.000183,292.275085   C675.647034,292.275085 502.940979,292.275085 329.164917,292.275085   C374.193390,347.519135 418.659302,402.076660 463.129364,456.630798   C507.758972,511.380707 552.392700,566.127319 597.036194,620.889526   C594.337402,624.115967 591.723511,627.257751 589.091675,630.384460   C574.064026,648.238159 558.970276,666.036743 544.021118,683.955994   C532.278320,698.031921 520.758057,712.293396 509.056335,726.403870   C494.057892,744.489563 479.029083,762.550659 463.915070,780.539795   C450.790710,796.160828 437.402496,811.561279 424.362396,827.251587   C409.417023,845.234558 394.844879,863.527710 379.894165,881.506165   C363.806519,900.851868 347.404205,919.936279 331.380798,939.334290   C330.304138,940.637695 330.457520,944.112488 331.437714,945.729126   C333.779785,949.592041 337.960510,950.039734 342.269470,950.038574   C513.747192,949.993347 685.224854,950.000000 856.702576,950.000000   C858.343811,950.000000 859.985046,950.000000 861.619873,950.000000   C874.286438,882.272949 886.889343,814.886108 899.585938,746.998169   C895.857422,746.998169 893.035217,746.871765 890.227600,747.020325   C878.816040,747.624451 870.352783,753.331177 865.141602,763.159058   C862.324280,768.472107 861.456604,774.783203 859.028748,780.347107   C855.557129,788.303101 851.760864,796.151855 847.568359,803.751343   C839.955383,817.550537 828.938660,828.139954 814.994812,835.396118   C796.798828,844.864990 776.914490,847.806641 756.804626,847.872803   C667.650513,848.166321 578.494934,847.999695 489.339874,847.999451   C487.413208,847.999451 485.486542,847.999329 482.743225,847.999329   C491.100220,838.164734 498.877502,828.931274 506.746338,819.776611   C513.604370,811.797913 520.635010,803.967163 527.464233,795.964294   C536.330139,785.574768 545.031372,775.044861 553.881104,764.641357   C560.313354,757.079773 566.927063,749.672485 573.360901,742.112183   C584.301758,729.255493 595.182434,716.347412 606.052429,703.430664   C610.897217,697.673767 615.654785,691.843445 620.979431,685.555786  z"
   id="path2" />&#10;<path
   fill="#4C5F74"
   opacity="1.000000"
   stroke="none"
   d=" M605.416992,1236.969727   C610.037354,1236.264526 615.102661,1235.434082 620.199951,1235.115845   C652.327393,1233.111206 683.748291,1226.993774 714.721191,1218.564697   C753.053101,1208.132935 789.827515,1193.622803 824.952209,1175.019531   C863.039856,1154.846924 898.436157,1130.755249 931.097778,1102.587402   C982.646240,1058.131226 1024.908447,1006.093018 1058.965942,947.257812   C1079.285278,912.155823 1095.896118,875.402039 1109.205566,837.083618   C1120.789795,803.731934 1129.728149,769.698730 1135.597046,734.941040   C1138.990967,714.840393 1141.112427,694.490295 1142.975464,674.176270   C1144.552612,656.979065 1145.656982,639.671936 1145.647461,622.414124   C1145.637573,604.321472 1144.674805,586.171448 1142.992920,568.152527   C1140.989746,546.691162 1138.782593,525.154907 1134.826660,503.994537   C1130.288208,479.718292 1124.518433,455.600494 1117.884521,431.803864   C1106.455444,390.807037 1089.884888,351.765472 1070.015381,314.139221   C1050.762329,277.680298 1028.435913,243.184311 1001.865601,211.660339   C987.083923,194.122894 971.568176,177.080444 955.175354,161.050095   C918.952087,125.627846 878.463623,95.766449 833.985229,71.339241   C805.615479,55.758785 776.203491,42.559372 745.595642,32.153034   C714.875488,21.708506 683.436035,14.001459 651.187744,9.963551   C637.690796,8.273549 624.140930,7.005620 610.298523,5.283190   C624.291077,5.035836 638.712097,3.911086 652.886047,5.302933   C682.675720,8.228193 712.572510,11.164080 741.994141,16.481417   C787.983276,24.792999 832.023315,39.923489 874.576050,59.341125   C929.023682,84.186577 978.769470,116.255310 1023.950012,155.495972   C1096.930908,218.882080 1151.428223,295.595917 1188.673462,384.585754   C1207.559326,429.709839 1220.324097,476.651398 1228.080444,524.987915   C1234.868042,567.287415 1236.717773,609.875366 1234.656860,652.520264   C1231.370239,720.528809 1216.825195,786.261536 1191.589966,849.568359   C1169.125977,905.923096 1138.991333,957.821411 1101.218140,1005.290710   C1044.531250,1076.528931 975.327026,1132.295044 893.881836,1172.886719   C838.858276,1200.310181 780.986023,1218.966187 720.335571,1229.077881   C682.427551,1235.397949 644.267212,1237.811157 605.416992,1236.969727  z"
   id="path3" />&#10;<path
   fill="#FFE9CF"
   opacity="1.000000"
   stroke="none"
   d=" M620.715698,685.801147   C615.654785,691.843445 610.897217,697.673767 606.052429,703.430664   C595.182434,716.347412 584.301758,729.255493 573.360901,742.112183   C566.927063,749.672485 560.313354,757.079773 553.881104,764.641357   C545.031372,775.044861 536.330139,785.574768 527.464233,795.964294   C520.635010,803.967163 513.604370,811.797913 506.746338,819.776611   C498.877502,828.931274 491.100220,838.164734 482.743225,847.999329   C485.486542,847.999329 487.413208,847.999451 489.339874,847.999451   C578.494934,847.999695 667.650513,848.166321 756.804626,847.872803   C776.914490,847.806641 796.798828,844.864990 814.994812,835.396118   C828.938660,828.139954 839.955383,817.550537 847.568359,803.751343   C851.760864,796.151855 855.557129,788.303101 859.028748,780.347107   C861.456604,774.783203 862.324280,768.472107 865.141602,763.159058   C870.352783,753.331177 878.816040,747.624451 890.227600,747.020325   C893.035217,746.871765 895.857422,746.998169 899.585938,746.998169   C886.889343,814.886108 874.286438,882.272949 861.619873,950.000000   C859.985046,950.000000 858.343811,950.000000 856.702576,950.000000   C685.224854,950.000000 513.747192,949.993347 342.269470,950.038574   C337.960510,950.039734 333.779785,949.592041 331.437714,945.729126   C330.457520,944.112488 330.304138,940.637695 331.380798,939.334290   C347.404205,919.936279 363.806519,900.851868 379.894165,881.506165   C394.844879,863.527710 409.417023,845.234558 424.362396,827.251587   C437.402496,811.561279 450.790710,796.160828 463.915070,780.539795   C479.029083,762.550659 494.057892,744.489563 509.056335,726.403870   C520.758057,712.293396 532.278320,698.031921 544.021118,683.955994   C558.970276,666.036743 574.064026,648.238159 589.091675,630.384460   C591.723511,627.257751 594.337402,624.115967 597.036194,620.889526   C552.392700,566.127319 507.758972,511.380707 463.129364,456.630798   C418.659302,402.076660 374.193390,347.519135 329.164917,292.275085   C502.940979,292.275085 675.647034,292.275085 849.000183,292.275085   C849.000183,293.940521 848.980957,295.698547 849.003052,297.456024   C849.344055,324.549561 849.679077,351.643158 850.039246,378.736420   C850.344177,401.668610 850.680725,424.600403 850.999512,447.532379   C851.017639,448.837402 851.001770,450.142883 851.001770,451.987732   C843.954956,451.987732 837.171204,452.252228 830.420288,451.896027   C825.813171,451.652924 821.235779,446.661346 820.011719,442.114563   C816.744812,429.979065 814.123169,417.583557 809.728394,405.859955   C804.336121,391.475433 796.227966,378.370544 785.020874,367.609344   C772.293762,355.388519 757.011475,347.773499 739.594299,345.132050   C730.361511,343.731873 720.927551,343.115601 711.581848,343.089935   C649.090454,342.918304 586.598328,342.986023 524.106567,343.070099   C522.114807,343.072784 520.124451,344.091827 518.133423,344.637085   C518.841309,346.678894 519.330261,348.834320 520.315125,350.732422   C521.426819,352.874817 522.895935,354.852875 524.361572,356.787262   C542.256714,380.405060 560.244263,403.953156 578.073730,427.620270   C590.592957,444.238495 602.756348,461.125916 615.351501,477.685577   C630.160522,497.155884 645.324036,516.356140 660.221436,535.759766   C671.718262,550.734253 683.031067,565.849976 694.454773,580.880737   C696.037109,582.962708 697.503967,585.279114 699.518494,586.855347   C703.636902,590.077698 701.280090,591.982178 698.873169,594.752686   C687.691162,607.623840 676.761108,620.713745 665.717773,633.705750   C659.656494,640.836609 653.574585,647.950378 647.456848,655.032898   C638.652588,665.225769 629.807251,675.383240 620.715698,685.801147  z"
   id="path4" />&#10;</svg>
